{
  "accessors": [
    {
      "bufferView": 2,
      "componentType": 5126,
      "count": 2214,
      "max": [
        10.28654670715332,
        6.221001148223877,
        25.400007247924805
      ],
      "min": [
        -10.28654670715332,
        -6.48485803604126,
        -1.9073486328125e-06
      ],
      "type": "VEC3"
    },
    {
      "bufferView": 2,
      "byteOffset": 26568,
      "componentType": 5126,
      "count": 2214,
      "max": [
        1.0,
        1.0,
        1.0
      ],
      "min": [
        -1.0,
        -1.0,
        -1.0
      ],
      "type": "VEC3"
    },
    {
      "bufferView": 3,
      "componentType": 5126,
      "count": 2214,
      "max": [
        1.0,
        1.0,
        1.0,
        1.0
      ],
      "min": [
        -1.0,
        -1.0,
        -1.0,
        -1.0
      ],
      "type": "VEC4"
    },
    {
      "bufferView": 1,
      "componentType": 5126,
      "count": 2214,
      "max": [
        0.9928485751152039,
        0.99609375
      ],
      "min": [
        0.00390625,
        0.0034522339701652527
      ],
      "type": "VEC2"
    },
    {
      "bufferView": 1,
      "byteOffset": 17712,
      "componentType": 5126,
      "count": 2214,
      "max": [
        0.9928485751152039,
        0.99609375
      ],
      "min": [
        0.00390625,
        0.0034522339701652527
      ],
      "type": "VEC2"
    },
    {
      "bufferView": 1,
      "byteOffset": 35424,
      "componentType": 5126,
      "count": 2214,
      "max": [
        0.9928485751152039,
        0.99609375
      ],
      "min": [
        0.00390625,
        0.0034522339701652527
      ],
      "type": "VEC2"
    },
    {
      "bufferView": 1,
      "byteOffset": 53136,
      "componentType": 5126,
      "count": 2214,
      "max": [
        0.9928485751152039,
        0.99609375
      ],
      "min": [
        0.00390625,
        0.0034522339701652527
      ],
      "type": "VEC2"
    },
    {
      "bufferView": 0,
      "componentType": 5125,
      "count": 6864,
      "type": "SCALAR"
    }
  ],
  "asset": {
    "extras": {
      "author": "Red Kaiser (https://sketchfab.com/redkaiser555)",
      "license": "CC-BY-NC-4.0 (http://creativecommons.org/licenses/by-nc/4.0/)",
      "source": "https://sketchfab.com/3d-models/aquarium-lamp-2d4cc112242148babd54093672298876",
      "title": "Aquarium lamp"
    },
    "generator": "Sketchfab-17.18.0",
    "version": "2.0"
  },
  "bufferViews": [
    {
      "buffer": 0,
      "byteLength": 27456,
      "name": "floatBufferViews",
      "target": 34963
    },
    {
      "buffer": 0,
      "byteLength": 70848,
      "byteOffset": 27456,
      "byteStride": 8,
      "name": "floatBufferViews",
      "target": 34962
    },
    {
      "buffer": 0,
      "byteLength": 53136,
      "byteOffset": 98304,
      "byteStride": 12,
      "name": "floatBufferViews",
      "target": 34962
    },
    {
      "buffer": 0,
      "byteLength": 35424,
      "byteOffset": 151440,
      "byteStride": 16,
      "name": "floatBufferViews",
      "target": 34962
    }
  ],
  "buffers": [
    {
      "byteLength": 186864,
      "uri": "scene.bin"
    }
  ],
  "extensionsUsed": [
    "KHR_materials_specular"
  ],
  "images": [
    {
      "uri": "textures/aquarium_lamp_baseColor.png"
    },
    {
      "uri": "textures/aquarium_lamp_metallicRoughness.png"
    },
    {
      "uri": "textures/aquarium_lamp_normal.png"
    }
  ],
  "materials": [
    {
      "alphaMode": "BLEND",
      "doubleSided": true,
      "extensions": {
        "KHR_materials_specular": {
          "specularColorFactor": [
            1.0,
            1.0,
            1.0
          ],
          "specularFactor": 0.0
        }
      },
      "name": "aquarium_lamp",
      "normalTexture": {
        "index": 2
      },
      "pbrMetallicRoughness": {
        "baseColorTexture": {
          "index": 0
        },
        "metallicRoughnessTexture": {
          "index": 1
        }
      }
    }
  ],
  "meshes": [
    {
      "name": "aquarium lamp_aquarium_lamp_0",
      "primitives": [
        {
          "attributes": {
            "NORMAL": 1,
            "POSITION": 0,
            "TANGENT": 2,
            "TEXCOORD_0": 3,
            "TEXCOORD_1": 4,
            "TEXCOORD_2": 5,
            "TEXCOORD_3": 6
          },
          "indices": 7,
          "material": 0,
          "mode": 4
        }
      ]
    }
  ],
  "nodes": [
    {
      "children": [
        1
      ],
      "matrix": [
        1.0,
        0.0,
        0.0,
        0.0,
        0.0,
        2.220446049250313e-16,
        -1.0,
        0.0,
        0.0,
        1.0,
        2.220446049250313e-16,
        0.0,
        0.0,
        0.0,
        0.0,
        1.0
      ],
      "name": "Sketchfab_model"
    },
    {
      "children": [
        2
      ],
      "matrix": [
        0.009999999776482582,
        0.0,
        0.0,
        0.0,
        0.0,
        0.0,
        0.009999999776482582,
        0.0,
        0.0,
        -0.009999999776482582,
        0.0,
        0.0,
        0.0,
        0.0,
        0.0,
        1.0
      ],
      "name": "34113e64e3ad45f6a182b322b0c637b7.fbx"
    },
    {
      "children": [
        3
      ],
      "name": "RootNode"
    },
    {
      "children": [
        4
      ],
      "matrix": [
        1.5136369466781616,
        0.0,
        0.0,
        0.0,
        0.0,
        -2.8212996916465727e-07,
        -0.9999999999999603,
        0.0,
        0.0,
        0.9999999999999603,
        -2.8212996916465727e-07,
        0.0,
        3.814697265625e-06,
        0.0,
        1.9073486328125e-06,
        1.0
      ],
      "name": "aquarium lamp"
    },
    {
      "mesh": 0,
      "name": "aquarium lamp_aquarium_lamp_0"
    }
  ],
  "samplers": [
    {
      "magFilter": 9729,
      "minFilter": 9987,
      "wrapS": 10497,
      "wrapT": 10497
    }
  ],
  "scene": 0,
  "scenes": [
    {
      "name": "Sketchfab_Scene",
      "nodes": [
        0
      ]
    }
  ],
  "textures": [
    {
      "sampler": 0,
      "source": 0
    },
    {
      "sampler": 0,
      "source": 1
    },
    {
      "sampler": 0,
      "source": 2
    }
  ]
}
